HIERARCHY
ROOT Hips
{
	OFFSET -14.64140 90.27770 -84.91600
	CHANNELS 6 Xposition Yposition Zposition Zrotation Xrotation Yrotation
	JOINT Spine
	{
		OFFSET 0.00000 13.20850 -1.60436
		CHANNELS 3 Zrotation Xrotation Yrotation
		JOINT Spine1
		{
			OFFSET 0.00000 8.61716 0.00000
			CHANNELS 3 Zrotation Xrotation Yrotation
			JOINT Spine2
			{
				OFFSET 0.00000 8.61717 0.00000
				CHANNELS 3 Zrotation Xrotation Yrotation
				JOINT Spine3
				{
					OFFSET 0.00000 8.61717 0.00000
					CHANNELS 3 Zrotation Xrotation Yrotation
					JOINT Neck
					{
						OFFSET 0.00000 11.07920 1.10792
						CHANNELS 3 Zrotation Xrotation Yrotation
						JOINT Neck1
						{
							OFFSET 0.00000 7.08032 0.00000
							CHANNELS 3 Zrotation Xrotation Yrotation
							JOINT Head
							{
								OFFSET 0.00000 7.08031 0.00000
								CHANNELS 3 Zrotation Xrotation Yrotation
								End site
								{
									OFFSET 0.00000 0.00000 0.00000
								}
							}
						}
					}
					JOINT RightShoulder
					{
						OFFSET -0.01000 7.91373 5.19711
						CHANNELS 3 Zrotation Xrotation Yrotation
						JOINT RightArm
						{
							OFFSET -18.41580 0.00000 0.00000
							CHANNELS 3 Zrotation Xrotation Yrotation
							JOINT RightForeArm
							{
								OFFSET -29.11090 0.00000 0.00000
								CHANNELS 3 Zrotation Xrotation Yrotation
								JOINT RightHand
								{
									OFFSET -24.65040 0.00000 0.00000
									CHANNELS 3 Zrotation Xrotation Yrotation
									JOINT RightHandThumb1
									{
										OFFSET -5.35114 -0.85590 3.97906
										CHANNELS 3 Zrotation Xrotation Yrotation
										JOINT RightHandThumb2
										{
											OFFSET -4.52789 0.00000 0.00000
											CHANNELS 3 Zrotation Xrotation Yrotation
											JOINT RightHandThumb3
											{
												OFFSET -2.46976 0.00000 0.00000
												CHANNELS 3 Zrotation Xrotation Yrotation
												End site
												{
													OFFSET 0.00000 0.00000 0.00000
												}
											}
										}
									}
									JOINT RightHandIndex1
									{
										OFFSET -14.26970 0.00000 2.88139
										CHANNELS 3 Zrotation Xrotation Yrotation
										JOINT RightHandIndex2
										{
											OFFSET -5.48836 0.00000 0.00000
											CHANNELS 3 Zrotation Xrotation Yrotation
											JOINT RightHandIndex3
											{
												OFFSET -3.01859 0.00000 0.00000
												CHANNELS 3 Zrotation Xrotation Yrotation
												End site
												{
													OFFSET 0.00000 0.00000 0.00000
												}
											}
										}
									}
									JOINT RightHandMiddle1
									{
										OFFSET -14.26970 0.00000 -0.09147
										CHANNELS 3 Zrotation Xrotation Yrotation
										JOINT RightHandMiddle2
										{
											OFFSET -6.17441 0.00000 0.00000
											CHANNELS 3 Zrotation Xrotation Yrotation
											JOINT RightHandMiddle3
											{
												OFFSET -3.56743 0.00000 0.00000
												CHANNELS 3 Zrotation Xrotation Yrotation
												End site
												{
													OFFSET 0.00000 0.00000 0.00000
												}
											}
										}
									}
									JOINT RightHandRing1
									{
										OFFSET -12.69180 0.00000 -3.06433
										CHANNELS 3 Zrotation Xrotation Yrotation
										JOINT RightHandRing2
										{
											OFFSET -5.62556 0.00000 0.00000
											CHANNELS 3 Zrotation Xrotation Yrotation
											JOINT RightHandRing3
											{
												OFFSET -3.56744 0.00000 0.00000
												CHANNELS 3 Zrotation Xrotation Yrotation
												End site
												{
													OFFSET 0.00000 0.00000 0.00000
												}
											}
										}
									}
									JOINT RightHandPinky1
									{
										OFFSET -11.11390 0.00000 -6.03719
										CHANNELS 3 Zrotation Xrotation Yrotation
										JOINT RightHandPinky2
										{
											OFFSET -4.52789 0.00000 0.00000
											CHANNELS 3 Zrotation Xrotation Yrotation
											JOINT RightHandPinky3
											{
												OFFSET -2.46976 0.00000 0.00000
												CHANNELS 3 Zrotation Xrotation Yrotation
												End site
												{
													OFFSET 0.00000 0.00000 0.00000
												}
											}
										}
									}
								}
							}
						}
					}
					JOINT LeftShoulder
					{
						OFFSET 0.01000 7.91373 5.19711
						CHANNELS 3 Zrotation Xrotation Yrotation
						JOINT LeftArm
						{
							OFFSET 18.41580 0.00000 0.00000
							CHANNELS 3 Zrotation Xrotation Yrotation
							JOINT LeftForeArm
							{
								OFFSET 29.11090 0.00000 0.00000
								CHANNELS 3 Zrotation Xrotation Yrotation
								JOINT LeftHand
								{
									OFFSET 24.65040 0.00000 0.00000
									CHANNELS 3 Zrotation Xrotation Yrotation
									JOINT LeftHandThumb1
									{
										OFFSET 5.35114 -0.85590 3.97906
										CHANNELS 3 Zrotation Xrotation Yrotation
										JOINT LeftHandThumb2
										{
											OFFSET 4.52789 0.00000 0.00000
											CHANNELS 3 Zrotation Xrotation Yrotation
											JOINT LeftHandThumb3
											{
												OFFSET 2.46977 0.00000 0.00000
												CHANNELS 3 Zrotation Xrotation Yrotation
												End site
												{
													OFFSET 0.00000 0.00000 0.00000
												}
											}
										}
									}
									JOINT LeftHandIndex1
									{
										OFFSET 14.26970 0.00000 2.88139
										CHANNELS 3 Zrotation Xrotation Yrotation
										JOINT LeftHandIndex2
										{
											OFFSET 5.48836 0.00000 0.00000
											CHANNELS 3 Zrotation Xrotation Yrotation
											JOINT LeftHandIndex3
											{
												OFFSET 3.01859 0.00000 0.00000
												CHANNELS 3 Zrotation Xrotation Yrotation
												End site
												{
													OFFSET 0.00000 0.00000 0.00000
												}
											}
										}
									}
									JOINT LeftHandMiddle1
									{
										OFFSET 14.26970 0.00000 -0.09147
										CHANNELS 3 Zrotation Xrotation Yrotation
										JOINT LeftHandMiddle2
										{
											OFFSET 6.17440 0.00000 0.00000
											CHANNELS 3 Zrotation Xrotation Yrotation
											JOINT LeftHandMiddle3
											{
												OFFSET 3.56744 0.00000 0.00000
												CHANNELS 3 Zrotation Xrotation Yrotation
												End site
												{
													OFFSET 0.00000 0.00000 0.00000
												}
											}
										}
									}
									JOINT LeftHandRing1
									{
										OFFSET 12.69180 0.00000 -3.06433
										CHANNELS 3 Zrotation Xrotation Yrotation
										JOINT LeftHandRing2
										{
											OFFSET 5.62556 0.00000 0.00000
											CHANNELS 3 Zrotation Xrotation Yrotation
											JOINT LeftHandRing3
											{
												OFFSET 3.56744 0.00000 0.00000
												CHANNELS 3 Zrotation Xrotation Yrotation
												End site
												{
													OFFSET 0.00000 0.00000 0.00000
												}
											}
										}
									}
									JOINT LeftHandPinky1
									{
										OFFSET 11.11390 0.00000 -6.03719
										CHANNELS 3 Zrotation Xrotation Yrotation
										JOINT LeftHandPinky2
										{
											OFFSET 4.52789 0.00000 0.00000
											CHANNELS 3 Zrotation Xrotation Yrotation
											JOINT LeftHandPinky3
											{
												OFFSET 2.46976 0.00000 0.00000
												CHANNELS 3 Zrotation Xrotation Yrotation
												End site
												{
													OFFSET 0.00000 0.00000 0.00000
												}
											}
										}
									}
								}
							}
						}
					}
					JOINT pCube4
					{
						OFFSET 0.00000 10.91090 1.10792
						CHANNELS 3 Zrotation Xrotation Yrotation
						End site
						{
							OFFSET 0.00000 0.00000 0.00000
						}
					}
				}
			}
		}
	}
	JOINT RightUpLeg
	{
		OFFSET -9.98441 0.00000 0.00000
		CHANNELS 3 Zrotation Xrotation Yrotation
		JOINT RightLeg
		{
			OFFSET 0.00000 -42.11790 0.00000
			CHANNELS 3 Zrotation Xrotation Yrotation
			JOINT RightFoot
			{
				OFFSET 0.00000 -45.00020 -0.00001
				CHANNELS 3 Zrotation Xrotation Yrotation
				JOINT RightForeFoot
				{
					OFFSET 0.00000 -3.74820 0.00000
					CHANNELS 3 Zrotation Xrotation Yrotation
					JOINT RightToeBase
					{
						OFFSET 0.00000 0.06325 14.43120
						CHANNELS 3 Zrotation Xrotation Yrotation
						End site
						{
							OFFSET 0.00000 0.00000 0.00000
						}
					}
				}
			}
		}
	}
	JOINT LeftUpLeg
	{
		OFFSET 9.98441 0.00000 0.00000
		CHANNELS 3 Zrotation Xrotation Yrotation
		JOINT LeftLeg
		{
			OFFSET 0.00000 -42.11800 0.00000
			CHANNELS 3 Zrotation Xrotation Yrotation
			JOINT LeftFoot
			{
				OFFSET 0.00000 -45.00070 0.00000
				CHANNELS 3 Zrotation Xrotation Yrotation
				JOINT LeftForeFoot
				{
					OFFSET 0.00000 -3.74824 0.00000
					CHANNELS 3 Zrotation Xrotation Yrotation
					JOINT LeftToeBase
					{
						OFFSET 0.00000 0.06325 14.43110
						CHANNELS 3 Zrotation Xrotation Yrotation
						End site
						{
							OFFSET 0.00000 0.00000 0.00000
						}
					}
				}
			}
		}
	}
}
MOTION
Frames: 4
Frame Time: 0.050000
0.0042170114533565065 0.018565513199131994 0.015587883739635433 0.0006825830383905144 -0.009392523391547749 0.04903838791567902 4.527046279335534 2.4074813069182683 -2.0957539493127912 -0.6792017676662262 3.536016514089411 0.37441049278373023 -0.6573184388716738 -1.1465754545394173 1.5503507958880063 -0.042521429533731 -0.2924904474043291 -0.21046252625527742 0.7620033514324127 11.861818051965578 -3.4003433088056814 0.2663267266078877 -0.6757068430592584 -9.167937020439863 1.4433955488476164 -16.923710215927983 -0.8249008302565771 -9.024359326308103 3.2554580551252523 -15.897633415215193 75.57816610037922 21.324632544639268 15.627652715427216 32.9992925633174 9.315426425622563 87.50635454824874 18.8490864612444 -0.3481540239539854 -7.764369934376516 4.542371052804532 -0.11755666051404468 -1.5905200460118798 -0.019362446599778812 0.022694168673676834 -56.21514332340376 0.027733593290143112 0.01991634590336315 -56.21841270390405 -38.75696235787184 -0.044077772943104145 0.004086477249195266 0.03196304566803908 -0.01643005243678109 0.020500864972545198 -9.871449338933333e-05 0.004483604377971495 -0.030358961152976677 -36.670059973593695 -0.0009165688583477613 -0.04638921415009554 -0.037793936725667235 0.022743303054856813 -0.020896435781666493 0.03823597229615826 0.03837510570905507 -0.03434687793218487 -19.723640168399587 0.0038701170855080405 0.026032857149201605 -0.029209940941669198 -0.0028908127188737747 0.012314623307951387 0.002438399854388035 0.04363991025231209 0.02804557344360115 24.030185301555726 -0.014004367087761335 0.022132268559385358 28.88717597472236 0.031254926162447294 -0.012848231329335264 28.831108313284556 0.014819105762182568 -0.015286129741222008 8.09558602801847 2.0339028405935466 13.904332472603013 -74.2043365021992 26.59123381187987 -10.291173282026952 -30.020048205481327 8.185118772498168 -80.60622067667872 -24.503688420137273 -8.4938497291001 6.041083098972932 -0.4608412071525851 0.10006199970675658 -8.12717744611504 -0.010575573006472145 -0.04242737383288847 44.563533339684554 -0.003937857919341923 0.029839691370432575 44.61749173820067 12.441066913456995 -0.04870396581687079 -0.008218128978538667 0.029635302736104773 -0.04491503457375566 0.023594781155347144 0.007816946900646899 0.021029610844264884 -0.011777626197573478 11.064644849493606 0.03315682525643232 0.003732913233341445 -0.038782800441557214 -0.0018526916712746986 -0.009327275336173058 0.03156112538295907 -0.02182738439865179 0.006373020725250143 4.755098900358851 0.019540768908358815 0.026660038444928858 -0.032303631098681666 -0.0027653778430356403 0.00822049738776643 -0.007012855533099215 -0.032804430857005705 -0.03662999239667712 -5.615712311406889 -0.01353334519801294 0.021431427443312927 -6.716508553248278 0.009179487783083471 -0.003177691606918352 -6.730436724341331 -0.021757372872579613 0.018511433182538478 -0.04812164700021475 0.006465025110286421 0.00020539465970690346 8.080816685875737 3.4953272541142697 -19.25570155173157 0.021102896895508254 10.395995183587404 0.041371365458437184 -5.638472428757977 -15.633859344408028 3.2145409923856314 0.01993642172154945 -0.033378444457816826 -0.004519517867029035 -0.0171552597579238 4.6861986147924615 0.012572514922068949 12.475253265538345 -8.242274009333313 6.877616641570113 -0.0034671422770813725 46.372530872701994 -0.028419985965324995 -4.3578364421922755 -14.701161585811258 -3.788140265762143 -0.006369335161098962 -0.04898452381819883 0.015178902466788723 -0.015851848975374585 -10.719167615320062 -0.003894060409099805 
0.0018863781188483775 -0.0046656597217736625 -0.03929541821795138 -0.016026450450390257 -0.009130770761934182 -0.024881916410307847 4.698520993123012 2.3762757236560073 -2.1368763228087357 -0.690214715260439 3.5009495475476404 0.38650487907498643 -0.6666141597942079 -1.1827496596774498 1.5338440444231638 -0.08661397853454256 -0.3375208530789822 -0.23589042830032148 0.7027310252660215 11.977302062765581 -3.2256824821482173 0.2878341997639612 -0.572992015359172 -8.650788951142271 1.433298881974115 -16.864993452637027 -0.7152357092330366 -9.388721363965717 3.306844275640532 -16.177592852219092 77.06496676858542 19.872245118175858 15.324596669411594 27.62949802685692 8.123190256167469 87.44262509084993 18.30283360595347 -0.3720904286137028 -7.0039303779425275 4.531637755811648 -0.13827171061180976 -1.604783124930411 0.010549234670047064 -0.022683146354645554 -56.214310311034296 0.04610504844387367 0.03339163487405074 -56.2548430370453 -38.78801885521629 -0.003993646057042853 -0.0027642632088750205 -0.027436998672825185 -0.017153917170891608 0.005624211730672414 -0.01668613756132919 0.013750539918311813 -0.03704512970150677 -36.7198494975035 -0.02570250151192259 0.0117534013882433 0.018990211815672266 0.018785140172990378 -0.02151695587454878 0.02650816160481667 -0.004301920600769559 0.015709131464056607 -19.7730109308431 0.03149459613198418 0.01209385153215985 -0.0059162878243557305 -0.011700591680046007 -0.019804831869155385 0.013730132460696477 0.013191216327992052 -0.010638571799646656 24.09252690744744 -0.03978873937176603 0.035016420967855046 28.85056995087704 0.03218712405697198 -0.016036337054888713 28.89583166393276 0.020224991341798795 0.017919434521749066 8.563465972214395 2.1610566273216083 14.016171707342865 -74.6902683853716 25.747400375635568 -10.653344374561259 -26.36946886429669 7.196469143996175 -78.50523995078615 -23.703938721680167 -8.032720103022859 5.802469534801838 -0.4873980541850088 0.05088098725937218 -8.07542155697567 -0.011479155882044841 0.007327550099739984 44.549707583277915 0.03810780327743597 0.0402713618819681 44.553968212441276 12.432092266885098 -0.005865778665257605 0.04875869237428187 -0.006162222833432679 -0.04932303056484143 -0.02427739489955915 -0.014233537152135411 0.02465983689505885 0.007588397099721401 11.126269682078988 -0.04971810891129335 0.007288819930361052 -0.039805358835928784 -0.011472049383870031 -0.026511043944003714 0.048441206337602814 0.024962326570056308 0.007436395911899754 4.724173462210075 0.04431893512633646 0.01768061824466094 0.04260968907372523 0.011181207613812937 0.003689955926259458 0.02964981980268826 0.04419034577321905 0.008948572800553535 -5.600163503596283 0.014485868963892418 -0.042408706553213105 -6.679677461219134 0.009640615689967037 -0.016642819582983547 -6.7357562782858835 -0.02503800369597679 -0.031359489570261585 -0.023859837860725406 -0.0006919160496307972 -0.03534057898539125 8.038179913414004 3.49449202322086 -19.261585305512906 -0.03460090651328682 10.430184160971375 0.03859038844301756 -5.5795279402526194 -15.656047214228439 3.2199478673921473 0.04687121257091052 -0.012608791650333354 0.008445457569833583 -0.03693673202521868 4.716322011285271 -0.03478993173693232 12.482754836013124 -8.26665570685138 6.903683563820548 0.03697853626984459 46.391033361991845 0.028712128309910465 -4.300243951356111 -14.704444930409126 -3.841722276149781 -0.04970643396306821 0.009576778626440387 -0.002521406599491485 -0.019104765829004906 -10.743746959542001 0.02141166472033461 
0.024978177618398042 -0.011429160893291787 -0.03854774123474344 -0.04081358451577638 -0.002631054992341777 -0.01028469704063821 4.7449806827103895 2.3203198307334976 -2.126372490394672 -0.6736796998413049 3.4538111595344865 0.3666840113300526 -0.6976974607456321 -1.1933827562711194 1.526006756566083 -0.2194653274779619 -0.36960852716488146 -0.2573158029473103 0.6431610210126333 11.913295290595022 -2.9825071942594548 0.31828652136485175 -0.43825183360247016 -7.951604990398088 1.4784767877954443 -16.819720660965242 -0.6820441911158445 -9.604868521548783 3.4034569684679443 -16.432309386357694 78.20222342705321 18.9627436979453 14.671698908482165 22.469459743526585 6.785628090490157 88.44054313170278 17.75369952514811 -0.4698155621024619 -6.25876762239453 4.50977067603609 -0.12616200961089397 -1.5765499901489286 -0.02508381087493068 -0.023366531055547844 -56.199547396819746 0.04510440819552662 0.04740081764057463 -56.22406958919058 -38.74853252887685 0.0322995437035506 0.004964124709881281 -0.048301943243835986 -0.047944080451554294 -0.042950932950340664 0.03481175345424116 0.021460401518073213 0.02883510787034993 -36.65383230616152 -0.025473334889716683 -0.02792235547484592 -0.0028930138661443314 -0.0011255762906353026 -0.01502702298907745 0.04649714729635 0.013404630529567071 -0.04045044318077144 -19.788293285260163 -0.046060243927776176 0.017657826692459456 0.032893960276533935 0.022509725458096822 -0.021396203265396794 -0.02719807667912755 -0.010882571839176429 -0.03876820907705743 24.031704719022535 0.0457573205737427 -0.009107908826721854 28.835292615641105 -0.013609605113410125 0.0017628157307102818 28.854435420381467 -0.0008890255452218781 0.04413831878898817 8.809746166423652 2.216405145870501 14.195172038607991 -75.2172319613194 25.204081622565546 -10.61697525236945 -24.33326918843508 6.840669368332839 -77.53201615525586 -23.046014911970264 -7.891616683075371 5.6534724905071165 -0.477782430267864 0.05508166335820159 -8.088078906422611 0.023324327266758618 -0.005694218915019229 44.613498381553036 0.00947148838900484 0.003370989059269438 44.599213968473805 12.454300213768079 0.015848246123310355 -0.02503286830976945 0.03245311906536199 -0.042654562919939694 -0.019875443751722618 -0.01832595418782041 0.03295725668120325 -0.02116174800128346 11.060064841083726 -0.042178480791653636 -0.048831712276431176 -0.005781195194922345 -0.015633222545059364 -0.03994166705682815 0.010489730124609228 0.04120276315410385 -0.03082244133207501 4.788061842885021 0.04976791426715844 0.034689357090823415 -0.00811672737195739 0.004722360465019511 -0.04149691114664739 0.01667061809812472 0.04552402497532693 -0.017980857078745426 -5.582535601770907 -0.010370552632341727 0.00810563289571468 -6.716539517240452 0.042823576768403704 -0.037024832766201436 -6.733926751318098 0.04432589370620875 0.013540334038157601 -0.017250507247359808 0.005148550034899309 0.03881458896697377 8.015932489981141 3.4571588193690945 -19.178265894510016 -0.02654426681522057 10.41464635042468 0.012217603957036086 -5.598786970591531 -15.636445830932997 3.200405049623012 -0.008250722532228767 -0.046750088822825074 0.04277023444837869 0.00410378411669412 4.680059838893732 -0.027025822312395045 12.413184635074677 -8.227333182118828 6.8550780205831545 0.012417807197855561 46.332190214387516 -0.0047157712301804005 -4.2972329321237295 -14.777746134856462 -3.8531896952929525 -0.031704489639405926 0.010109484759167793 0.03717041822940727 0.011000794671921037 -10.768589509868573 -0.009696430140085144 
0.02078130242389549 0.005755382488864792 -0.043564235298534856 -0.016112019065423446 -0.027313305448545523 -0.037188353288229545 4.819314894418861 2.2962116311329934 -2.155709061469305 -0.7335793923015616 3.519670544195386 0.42339919829493344 -0.6366824283488495 -1.1992440618181932 1.508837172510776 -0.31347255305368893 -0.4077140667779751 -0.19862950234466184 0.5419611999227567 11.899854597885442 -2.7207395643508474 0.39492837183114166 -0.4116784550483987 -7.068468700730037 1.3967818001594614 -16.659125052477947 -0.6382485187100562 -9.560968467819396 3.4399756210400962 -16.73161327383931 79.36816484544183 18.921524302631898 13.522730600142559 17.522328098344676 5.183079760223375 89.95155306231413 17.2512872842197 -0.46933591877234415 -5.484817612815047 4.486015891631041 -0.11534603118674311 -1.6230078741556249 -0.013520120522745156 0.03509960221416783 -56.27863546958512 0.03757262960039137 -0.007799902073666627 -56.23243874589463 -38.749911729986486 -0.030757304085378124 -0.02385748387234354 -0.004669740295459051 0.04770618900537464 0.0061147414829657515 0.03853155083484937 0.03213354969756041 -0.021822022629932058 -36.69191266394543 -0.023890481614688507 0.04201585621231745 -0.03053017032200621 -0.0027170111487716253 -0.02960566519326714 0.006350161441332978 0.02793820831854553 0.023636454274488163 -19.746599896886597 0.002513610136112177 0.03745974428675147 -0.044709960874509166 -0.009696782789294036 0.013613957764080897 -0.008845131618198934 0.024062023088014448 -0.0019153645632594494 24.088076567602407 -0.005529473222493707 0.029796977865145055 28.83777268214013 0.037283052466819344 -0.002121922904223302 28.87877296771586 -0.01681018437447022 -0.02248239677178847 9.02313212513152 2.2048481730614724 14.33316001649922 -75.73552089164222 25.19361850948511 -10.416418995071076 -23.83733764458526 7.147086923500699 -77.57869717448933 -22.590015317677477 -8.055849481252315 5.7273792791540385 -0.43882046874579106 0.04408528282146659 -8.149729120607649 0.026852648367880493 -0.018204509337189496 44.525905326482835 -0.028182850149247957 0.020770798704863206 44.54809266319595 12.484884996041945 -0.037400656876165374 0.0005685010060853611 0.008919225680545135 0.01729810483382058 0.02303320280082053 0.03067592938883132 0.021821485675227598 0.013606087080721661 11.110858271793706 0.024925571946013886 0.002707538721603137 0.023298054275826593 -0.04772681079638576 -0.014272010150855106 -0.04557770863360956 0.03371412135780956 -0.04538053322589435 4.806342495717327 0.013673988031376899 0.0200552226591952 0.024125786442239717 0.0032310193159940078 0.012212058834688629 -0.03365002475505803 -0.011358495941707441 -0.03314529889791635 -5.593767953381051 -0.03616225663713582 -0.034030928498014444 -6.766368164078128 -0.038725193131110405 0.04222505951911942 -6.716163365327914 0.038459633682033964 0.010562195055854632 0.015382605115485387 0.03577159984324119 -0.003998949452309799 8.068955598552844 3.5063406737154423 -19.24397012810142 0.020343973047854826 10.351313098436577 0.041810777765300775 -5.629958243754469 -15.641352544475074 3.213926782288664 -0.009127962611108749 -0.0351908569296049 0.04788679234694901 0.007603802421393514 4.730710064687654 -0.02459612288143241 12.463569722943612 -8.27941523850899 6.878819005708054 -0.03329431281295448 46.37454438321881 0.04506046484290088 -4.307238543690152 -14.789831228864115 -3.878399844348792 -0.01832253359887311 0.008290316093728592 -0.03337609333845033 0.034514528567582914 -10.72398158171906 -0.02304338906823167 
